<svg xmlns="http://www.w3.org/2000/svg" width="1280" height="720" viewBox="0 0 960 540"><g data-name="Artifact"><clipPath id="a"><path transform="matrix(1 0 0 -1 0 540)" d="M0 0h960v540H0z" fill-rule="evenodd"/></clipPath><g clip-path="url(#a)"><path d="M0 540h960V0H0z" fill="#fff" fill-rule="evenodd"/></g></g><g data-name="P"><clipPath id="b"><path transform="matrix(1 0 0 -1 0 540)" d="M0 0h960v540H0z" fill-rule="evenodd"/></clipPath><g clip-path="url(#b)"><path d="M960 326.5H648zm0 214.25H648zm-312 0H433.84zm312 0H0v-.79h434.63H0V439.31h535.61L648 327.28 535.61 439.31H0v-225.8h312V-.75H0h385.41H312v213.47L425.18 99.9H960z" fill="#fff" fill-rule="evenodd"/></g></g><g data-name="P"><clipPath id="c"><path transform="matrix(1 0 0 -1 0 540)" d="M0 0h960v540H0z" fill-rule="evenodd"/></clipPath><g clip-path="url(#c)"><path stroke-width="1.5" stroke-miterlimit="10" fill="none" stroke="#000" d="M960.37 99H424.5"/></g></g><path stroke-width="1.5" stroke-miterlimit="10" fill="none" stroke="#000" d="M424.48 99 387 136.67" data-name="P"/><path d="M356.25 172.5a5.25 5.25 0 1 1-10.5 0 5.25 5.25 0 1 1 10.5 0zm-1.43 0a3.82 3.82 0 1 0-7.64 0 3.82 3.82 0 0 0 7.64 0z" fill-rule="evenodd" data-name="P"/><path stroke-width="1.5" stroke-miterlimit="10" fill="none" stroke="#000" d="m347.98 175.5-37.48 37.67" data-name="P"/><g data-name="P"><clipPath id="d"><path transform="matrix(1 0 0 -1 0 540)" d="M0 0h960v540H0z" fill-rule="evenodd"/></clipPath><g clip-path="url(#d)"><path stroke-width="1.5" stroke-miterlimit="10" fill="none" stroke="#000" d="M310.52 213.75 0 213.86"/></g></g><path d="M388.5 140.25c0 2.9-2.18 5.25-4.87 5.25-2.7 0-4.88-2.35-4.88-5.25s2.18-5.25 4.88-5.25c2.69 0 4.87 2.35 4.87 5.25zm-1.32 0c0-2.17-1.59-3.93-3.55-3.93-1.97 0-3.56 1.76-3.56 3.93s1.59 3.93 3.56 3.93c1.96 0 3.55-1.76 3.55-3.93z" fill-rule="evenodd" data-name="P"/></svg>