<svg xmlns="http://www.w3.org/2000/svg" width="1280" height="720" viewBox="0 0 960 540"><g data-name="Artifact"><clipPath id="a"><path transform="matrix(1 0 0 -1 0 540)" d="M0 0h960v540H0z" fill-rule="evenodd"/></clipPath><g clip-path="url(#a)"><path d="M0 540h960V0H0z" fill="#fff" fill-rule="evenodd"/></g></g><g data-name="P"><clipPath id="b"><path transform="matrix(1 0 0 -1 0 540)" d="M0 0h960v540H0z" fill-rule="evenodd"/></clipPath><g clip-path="url(#b)"><path d="M0 213.5h312zM0-.75h312zm312 0h214.16zM0-.75h960v.79H525.37 960v100.65H424.39L312 212.72l112.39-112.03H960v225.8H648v214.26h312-385.41H648V327.28L534.82 440.101H0z" fill="#fff" fill-rule="evenodd"/></g></g><g data-name="P"><clipPath id="c"><path transform="matrix(1 0 0 -1 0 540)" d="M0 0h960v540H0z" fill-rule="evenodd"/></clipPath><g clip-path="url(#c)"><path stroke-width="1.5" stroke-miterlimit="10" fill="none" stroke="#000" d="M0 441h535.87"/></g></g><path stroke-width="1.5" stroke-miterlimit="10" fill="none" stroke="#000" d="m535.5 441.165 37.48-37.665" data-name="P"/><path d="M603.75 367.5a5.25 5.25 0 1 1 10.5 0 5.25 5.25 0 1 1-10.5 0zm1.43 0a3.82 3.82 0 1 0 7.64 0 3.82 3.82 0 0 0-7.64 0z" fill-rule="evenodd" data-name="P"/><path stroke-width="1.5" stroke-miterlimit="10" fill="none" stroke="#000" d="m612 363.92 37.48-37.67" data-name="P"/><g data-name="P"><clipPath id="d"><path transform="matrix(1 0 0 -1 0 540)" d="M0 0h960v540H0z" fill-rule="evenodd"/></clipPath><g clip-path="url(#d)"><path stroke-width="1.5" stroke-miterlimit="10" fill="none" stroke="#000" d="m649.5 326.36 310.52-.11"/></g></g><path d="M571.5 399.75c0-2.9 2.18-5.25 4.88-5.25 2.69 0 4.87 2.35 4.87 5.25s-2.18 5.25-4.87 5.25c-2.7 0-4.88-2.35-4.88-5.25zm1.32 0c0 2.17 1.59 3.93 3.56 3.93 1.96 0 3.55-1.76 3.55-3.93s-1.59-3.93-3.55-3.93c-1.97 0-3.56 1.76-3.56 3.93z" fill-rule="evenodd" data-name="P"/></svg>