<svg xmlns="http://www.w3.org/2000/svg" width="1280" height="720" viewBox="0 0 960 540"><g data-name="Artifact"><clipPath id="a"><path transform="matrix(1 0 0 -1 0 540)" d="M0 0h960v540H0z" fill-rule="evenodd"/></clipPath><g clip-path="url(#a)"><path d="M0 540h960V0H0z" fill="#fff" fill-rule="evenodd"/></g></g><g data-name="P"><clipPath id="b"><path transform="matrix(1 0 0 -1 0 540)" d="M0 0h960v540H0z" fill-rule="evenodd"/></clipPath><g clip-path="url(#b)"><path stroke-width="1.75" stroke-miterlimit="10" fill="none" stroke="#dadada" d="M0 43.5h960"/></g></g><g data-name="P"><clipPath id="c"><path transform="matrix(1 0 0 -1 0 540)" d="M0 0h960v540H0z" fill-rule="evenodd"/></clipPath><g clip-path="url(#c)"><path stroke-width="1.75" stroke-miterlimit="10" fill="none" stroke="#dadada" d="M0 100.5h960"/></g></g><g data-name="P"><clipPath id="d"><path transform="matrix(1 0 0 -1 0 540)" d="M0 0h960v540H0z" fill-rule="evenodd"/></clipPath><g clip-path="url(#d)"><path stroke-width="1.75" stroke-miterlimit="10" fill="none" stroke="#dadada" d="M0 156.75h960"/></g></g><g data-name="P"><clipPath id="e"><path transform="matrix(1 0 0 -1 0 540)" d="M0 0h960v540H0z" fill-rule="evenodd"/></clipPath><g clip-path="url(#e)"><path stroke-width="1.75" stroke-miterlimit="10" fill="none" stroke="#dadada" d="M0 214.5h960"/></g></g><g data-name="P"><clipPath id="f"><path transform="matrix(1 0 0 -1 0 540)" d="M0 0h960v540H0z" fill-rule="evenodd"/></clipPath><g clip-path="url(#f)"><path stroke-width="1.75" stroke-miterlimit="10" fill="none" stroke="#dadada" d="M0 270h960"/></g></g><g data-name="P"><clipPath id="g"><path transform="matrix(1 0 0 -1 0 540)" d="M0 0h960v540H0z" fill-rule="evenodd"/></clipPath><g clip-path="url(#g)"><path stroke-width="1.75" stroke-miterlimit="10" fill="none" stroke="#dadada" d="M0 326.25h960"/></g></g><g data-name="P"><clipPath id="h"><path transform="matrix(1 0 0 -1 0 540)" d="M0 0h960v540H0z" fill-rule="evenodd"/></clipPath><g clip-path="url(#h)"><path stroke-width="1.75" stroke-miterlimit="10" fill="none" stroke="#dadada" d="M0 383.25h960"/></g></g><g data-name="P"><clipPath id="i"><path transform="matrix(1 0 0 -1 0 540)" d="M0 0h960v540H0z" fill-rule="evenodd"/></clipPath><g clip-path="url(#i)"><path stroke-width="1.75" stroke-miterlimit="10" fill="none" stroke="#dadada" d="M0 439.5h960"/></g></g><g data-name="P"><clipPath id="j"><path transform="matrix(1 0 0 -1 0 540)" d="M0 0h960v540H0z" fill-rule="evenodd"/></clipPath><g clip-path="url(#j)"><path stroke-width="1.75" stroke-miterlimit="10" fill="none" stroke="#dadada" d="M0 496.5h960"/></g></g><g data-name="P"><clipPath id="k"><path transform="matrix(1 0 0 -1 0 540)" d="M0 0h960v540H0z" fill-rule="evenodd"/></clipPath><g clip-path="url(#k)"><path stroke-width="1.75" stroke-miterlimit="10" fill="none" stroke="#dadada" d="M27 540V0"/></g></g><g data-name="P"><clipPath id="l"><path transform="matrix(1 0 0 -1 0 540)" d="M0 0h960v540H0z" fill-rule="evenodd"/></clipPath><g clip-path="url(#l)"><path stroke-width="1.75" stroke-miterlimit="10" fill="none" stroke="#dadada" d="M140.25 540V0"/></g></g><g data-name="P"><clipPath id="m"><path transform="matrix(1 0 0 -1 0 540)" d="M0 0h960v540H0z" fill-rule="evenodd"/></clipPath><g clip-path="url(#m)"><path stroke-width="1.75" stroke-miterlimit="10" fill="none" stroke="#dadada" d="M82.5 540V0"/></g></g><g data-name="P"><clipPath id="n"><path transform="matrix(1 0 0 -1 0 540)" d="M0 0h960v540H0z" fill-rule="evenodd"/></clipPath><g clip-path="url(#n)"><path stroke-width="1.75" stroke-miterlimit="10" fill="none" stroke="#dadada" d="M196.5 540V0"/></g></g><g data-name="P"><clipPath id="o"><path transform="matrix(1 0 0 -1 0 540)" d="M0 0h960v540H0z" fill-rule="evenodd"/></clipPath><g clip-path="url(#o)"><path stroke-width="1.75" stroke-miterlimit="10" fill="none" stroke="#dadada" d="M253.5 540V0"/></g></g><g data-name="P"><clipPath id="p"><path transform="matrix(1 0 0 -1 0 540)" d="M0 0h960v540H0z" fill-rule="evenodd"/></clipPath><g clip-path="url(#p)"><path stroke-width="1.75" stroke-miterlimit="10" fill="none" stroke="#dadada" d="M309.75 540V0"/></g></g><g data-name="P"><clipPath id="q"><path transform="matrix(1 0 0 -1 0 540)" d="M0 0h960v540H0z" fill-rule="evenodd"/></clipPath><g clip-path="url(#q)"><path stroke-width="1.75" stroke-miterlimit="10" fill="none" stroke="#dadada" d="M365.25 540V0"/></g></g><g data-name="P"><clipPath id="r"><path transform="matrix(1 0 0 -1 0 540)" d="M0 0h960v540H0z" fill-rule="evenodd"/></clipPath><g clip-path="url(#r)"><path stroke-width="1.75" stroke-miterlimit="10" fill="none" stroke="#dadada" d="M423 540V0"/></g></g><g data-name="P"><clipPath id="s"><path transform="matrix(1 0 0 -1 0 540)" d="M0 0h960v540H0z" fill-rule="evenodd"/></clipPath><g clip-path="url(#s)"><path stroke-width="1.75" stroke-miterlimit="10" fill="none" stroke="#dadada" d="M536.25 540V0"/></g></g><g data-name="P"><clipPath id="t"><path transform="matrix(1 0 0 -1 0 540)" d="M0 0h960v540H0z" fill-rule="evenodd"/></clipPath><g clip-path="url(#t)"><path stroke-width="1.75" stroke-miterlimit="10" fill="none" stroke="#dadada" d="M480.75 540V0"/></g></g><g data-name="P"><clipPath id="u"><path transform="matrix(1 0 0 -1 0 540)" d="M0 0h960v540H0z" fill-rule="evenodd"/></clipPath><g clip-path="url(#u)"><path stroke-width="1.75" stroke-miterlimit="10" fill="none" stroke="#dadada" d="M593.25 540V0"/></g></g><g data-name="P"><clipPath id="v"><path transform="matrix(1 0 0 -1 0 540)" d="M0 0h960v540H0z" fill-rule="evenodd"/></clipPath><g clip-path="url(#v)"><path stroke-width="1.75" stroke-miterlimit="10" fill="none" stroke="#dadada" d="M651.75 540V0"/></g></g><g data-name="P"><clipPath id="w"><path transform="matrix(1 0 0 -1 0 540)" d="M0 0h960v540H0z" fill-rule="evenodd"/></clipPath><g clip-path="url(#w)"><path stroke-width="1.75" stroke-miterlimit="10" fill="none" stroke="#dadada" d="M706.5 540V0"/></g></g><g data-name="P"><clipPath id="x"><path transform="matrix(1 0 0 -1 0 540)" d="M0 0h960v540H0z" fill-rule="evenodd"/></clipPath><g clip-path="url(#x)"><path stroke-width="1.75" stroke-miterlimit="10" fill="none" stroke="#dadada" d="M819.75 540V0"/></g></g><g data-name="P"><clipPath id="y"><path transform="matrix(1 0 0 -1 0 540)" d="M0 0h960v540H0z" fill-rule="evenodd"/></clipPath><g clip-path="url(#y)"><path stroke-width="1.75" stroke-miterlimit="10" fill="none" stroke="#dadada" d="M763.5 540V0"/></g></g><g data-name="P"><clipPath id="z"><path transform="matrix(1 0 0 -1 0 540)" d="M0 0h960v540H0z" fill-rule="evenodd"/></clipPath><g clip-path="url(#z)"><path stroke-width="1.75" stroke-miterlimit="10" fill="none" stroke="#dadada" d="M877.5 540V0"/></g></g><g data-name="P"><clipPath id="A"><path transform="matrix(1 0 0 -1 0 540)" d="M0 0h960v540H0z" fill-rule="evenodd"/></clipPath><g clip-path="url(#A)"><path stroke-width="1.75" stroke-miterlimit="10" fill="none" stroke="#dadada" d="M933 540V0"/></g></g><g data-name="P"><clipPath id="B"><path transform="matrix(1 0 0 -1 0 540)" d="M0 0h960v540H0z" fill-rule="evenodd"/></clipPath><g clip-path="url(#B)"><path stroke-width="1.75" stroke-miterlimit="10" fill="none" stroke="#dadada" d="M0 19.5h960"/></g></g><g data-name="P"><clipPath id="C"><path transform="matrix(1 0 0 -1 0 540)" d="M0 0h960v540H0z" fill-rule="evenodd"/></clipPath><g clip-path="url(#C)"><path stroke-width="1.75" stroke-miterlimit="10" fill="none" stroke="#dadada" d="M0 69.75h960"/></g></g><g data-name="P"><clipPath id="D"><path transform="matrix(1 0 0 -1 0 540)" d="M0 0h960v540H0z" fill-rule="evenodd"/></clipPath><g clip-path="url(#D)"><path stroke-width="1.75" stroke-miterlimit="10" fill="none" stroke="#dadada" d="M0 129h960"/></g></g><g data-name="P"><clipPath id="E"><path transform="matrix(1 0 0 -1 0 540)" d="M0 0h960v540H0z" fill-rule="evenodd"/></clipPath><g clip-path="url(#E)"><path stroke-width="1.75" stroke-miterlimit="10" fill="none" stroke="#dadada" d="M0 186.75h960"/></g></g><g data-name="P"><clipPath id="F"><path transform="matrix(1 0 0 -1 0 540)" d="M0 0h960v540H0z" fill-rule="evenodd"/></clipPath><g clip-path="url(#F)"><path stroke-width="1.75" stroke-miterlimit="10" fill="none" stroke="#dadada" d="M0 243.75h960"/></g></g><g data-name="P"><clipPath id="G"><path transform="matrix(1 0 0 -1 0 540)" d="M0 0h960v540H0z" fill-rule="evenodd"/></clipPath><g clip-path="url(#G)"><path stroke-width="1.75" stroke-miterlimit="10" fill="none" stroke="#dadada" d="M0 300.75h960"/></g></g><g data-name="P"><clipPath id="H"><path transform="matrix(1 0 0 -1 0 540)" d="M0 0h960v540H0z" fill-rule="evenodd"/></clipPath><g clip-path="url(#H)"><path stroke-width="1.75" stroke-miterlimit="10" fill="none" stroke="#dadada" d="M0 357.75h960"/></g></g><g data-name="P"><clipPath id="I"><path transform="matrix(1 0 0 -1 0 540)" d="M0 0h960v540H0z" fill-rule="evenodd"/></clipPath><g clip-path="url(#I)"><path stroke-width="1.75" stroke-miterlimit="10" fill="none" stroke="#dadada" d="M0 411h960"/></g></g><g data-name="P"><clipPath id="J"><path transform="matrix(1 0 0 -1 0 540)" d="M0 0h960v540H0z" fill-rule="evenodd"/></clipPath><g clip-path="url(#J)"><path stroke-width="1.75" stroke-miterlimit="10" fill="none" stroke="#dadada" d="M0 470.25h960"/></g></g><g data-name="P"><clipPath id="K"><path transform="matrix(1 0 0 -1 0 540)" d="M0 0h960v540H0z" fill-rule="evenodd"/></clipPath><g clip-path="url(#K)"><path stroke-width="1.75" stroke-miterlimit="10" fill="none" stroke="#dadada" d="M0 540V0"/></g></g><g data-name="P"><clipPath id="L"><path transform="matrix(1 0 0 -1 0 540)" d="M0 0h960v540H0z" fill-rule="evenodd"/></clipPath><g clip-path="url(#L)"><path stroke-width="1.75" stroke-miterlimit="10" fill="none" stroke="#dadada" d="M111.75 540V0"/></g></g><g data-name="P"><clipPath id="M"><path transform="matrix(1 0 0 -1 0 540)" d="M0 0h960v540H0z" fill-rule="evenodd"/></clipPath><g clip-path="url(#M)"><path stroke-width="1.75" stroke-miterlimit="10" fill="none" stroke="#dadada" d="M54.75 540V0"/></g></g><g data-name="P"><clipPath id="N"><path transform="matrix(1 0 0 -1 0 540)" d="M0 0h960v540H0z" fill-rule="evenodd"/></clipPath><g clip-path="url(#N)"><path stroke-width="1.75" stroke-miterlimit="10" fill="none" stroke="#dadada" d="M169.5 540V0"/></g></g><g data-name="P"><clipPath id="O"><path transform="matrix(1 0 0 -1 0 540)" d="M0 0h960v540H0z" fill-rule="evenodd"/></clipPath><g clip-path="url(#O)"><path stroke-width="1.75" stroke-miterlimit="10" fill="none" stroke="#dadada" d="M225.75 540V0"/></g></g><g data-name="P"><clipPath id="P"><path transform="matrix(1 0 0 -1 0 540)" d="M0 0h960v540H0z" fill-rule="evenodd"/></clipPath><g clip-path="url(#P)"><path stroke-width="1.75" stroke-miterlimit="10" fill="none" stroke="#dadada" d="M279 540V0"/></g></g><g data-name="P"><clipPath id="Q"><path transform="matrix(1 0 0 -1 0 540)" d="M0 0h960v540H0z" fill-rule="evenodd"/></clipPath><g clip-path="url(#Q)"><path stroke-width="1.75" stroke-miterlimit="10" fill="none" stroke="#dadada" d="M336 540V0"/></g></g><g data-name="P"><clipPath id="R"><path transform="matrix(1 0 0 -1 0 540)" d="M0 0h960v540H0z" fill-rule="evenodd"/></clipPath><g clip-path="url(#R)"><path stroke-width="1.75" stroke-miterlimit="10" fill="none" stroke="#dadada" d="M393 540V0"/></g></g><g data-name="P"><clipPath id="S"><path transform="matrix(1 0 0 -1 0 540)" d="M0 0h960v540H0z" fill-rule="evenodd"/></clipPath><g clip-path="url(#S)"><path stroke-width="1.75" stroke-miterlimit="10" fill="none" stroke="#dadada" d="M507.75 540V0"/></g></g><g data-name="P"><clipPath id="T"><path transform="matrix(1 0 0 -1 0 540)" d="M0 0h960v540H0z" fill-rule="evenodd"/></clipPath><g clip-path="url(#T)"><path stroke-width="1.75" stroke-miterlimit="10" fill="none" stroke="#dadada" d="M450.75 540V0"/></g></g><g data-name="P"><clipPath id="U"><path transform="matrix(1 0 0 -1 0 540)" d="M0 0h960v540H0z" fill-rule="evenodd"/></clipPath><g clip-path="url(#U)"><path stroke-width="1.75" stroke-miterlimit="10" fill="none" stroke="#dadada" d="M565.5 540V0"/></g></g><g data-name="P"><clipPath id="V"><path transform="matrix(1 0 0 -1 0 540)" d="M0 0h960v540H0z" fill-rule="evenodd"/></clipPath><g clip-path="url(#V)"><path stroke-width="1.75" stroke-miterlimit="10" fill="none" stroke="#dadada" d="M621.75 540V0"/></g></g><g data-name="P"><clipPath id="W"><path transform="matrix(1 0 0 -1 0 540)" d="M0 0h960v540H0z" fill-rule="evenodd"/></clipPath><g clip-path="url(#W)"><path stroke-width="1.75" stroke-miterlimit="10" fill="none" stroke="#dadada" d="M676.5 540V0"/></g></g><g data-name="P"><clipPath id="X"><path transform="matrix(1 0 0 -1 0 540)" d="M0 0h960v540H0z" fill-rule="evenodd"/></clipPath><g clip-path="url(#X)"><path stroke-width="1.75" stroke-miterlimit="10" fill="none" stroke="#dadada" d="M790.5 540V0"/></g></g><g data-name="P"><clipPath id="Y"><path transform="matrix(1 0 0 -1 0 540)" d="M0 0h960v540H0z" fill-rule="evenodd"/></clipPath><g clip-path="url(#Y)"><path stroke-width="1.75" stroke-miterlimit="10" fill="none" stroke="#dadada" d="M734.25 540V0"/></g></g><g data-name="P"><clipPath id="Z"><path transform="matrix(1 0 0 -1 0 540)" d="M0 0h960v540H0z" fill-rule="evenodd"/></clipPath><g clip-path="url(#Z)"><path stroke-width="1.75" stroke-miterlimit="10" fill="none" stroke="#dadada" d="M848.25 540V0"/></g></g><g data-name="P"><clipPath id="aa"><path transform="matrix(1 0 0 -1 0 540)" d="M0 0h960v540H0z" fill-rule="evenodd"/></clipPath><g clip-path="url(#aa)"><path stroke-width="1.75" stroke-miterlimit="10" fill="none" stroke="#dadada" d="M904.5 540V0"/></g></g><g data-name="P"><clipPath id="ab"><path transform="matrix(1 0 0 -1 0 540)" d="M0 0h960v540H0z" fill-rule="evenodd"/></clipPath><g clip-path="url(#ab)"><path stroke-width="1.75" stroke-miterlimit="10" fill="none" stroke="#dadada" d="M0 520.5h960"/></g></g></svg>